<svg width="24" height="24" viewBox="0 0 24 24" fill="none" xmlns="http://www.w3.org/2000/svg">
<path fill-rule="evenodd" clip-rule="evenodd" d="M4 6C4 5.17157 4.67157 4.5 5.5 4.5H17.5C18.3284 4.5 19 5.17157 19 6C19 6.82843 18.3284 7.5 17.5 7.5H5.5C4.67157 7.5 4 6.82843 4 6ZM2 12C2 11.1716 2.67157 10.5 3.5 10.5H20.5C21.3284 10.5 22 11.1716 22 12C22 12.8284 21.3284 13.5 20.5 13.5H3.5C2.67157 13.5 2 12.8284 2 12ZM5.5 16.5C4.67157 16.5 4 17.1716 4 18C4 18.8284 4.67157 19.5 5.5 19.5H17.5C18.3284 19.5 19 18.8284 19 18C19 17.1716 18.3284 16.5 17.5 16.5H5.5Z" fill="black"/>
</svg>
