<svg width="97" height="100" viewBox="0 0 97 100" fill="none" xmlns="http://www.w3.org/2000/svg">
<path d="M0 90.0499H8.05042V92.0174H5.1449V99.8876H3.01891V92.0174H0V90.0499Z" fill="white"/>
<path d="M16.5075 90.0499V92.0034H11.4477V94.0131H15.9406V95.9244H11.4477V97.9341H16.5075V99.8876H9.32169V90.0499H16.5075Z" fill="white"/>
<path d="M18.9263 91.4272C19.9184 90.4434 21.1137 89.9515 22.5121 89.9515C23.5137 89.9515 24.4113 90.2232 25.205 90.7667C26.0082 91.3101 26.6177 92.0315 27.0334 92.9309L25.0066 93.5071C24.7515 93.0387 24.4113 92.6639 23.9861 92.3828C23.561 92.1018 23.0696 91.9612 22.5121 91.9612C21.6712 91.9612 20.9672 92.2517 20.4003 92.8326C19.8428 93.4135 19.5641 94.1302 19.5641 94.9828C19.5641 95.8354 19.8428 96.5521 20.4003 97.133C20.9672 97.7045 21.6712 97.9903 22.5121 97.9903C23.6271 97.9903 24.4444 97.4984 24.9641 96.5147L27.0192 97.0628C26.6129 97.9528 26.0082 98.6649 25.205 99.1989C24.4113 99.733 23.5137 100 22.5121 100C21.1137 100 19.9184 99.5128 18.9263 98.5384C17.9342 97.5546 17.4381 96.3694 17.4381 94.9828C17.4381 93.5962 17.9342 92.411 18.9263 91.4272Z" fill="white"/>
<path d="M30.3684 90.0499V94.0131H34.8188V90.0499H36.9448V99.8876H34.8188V95.9103H30.3684V99.8876H28.2424V90.0499H30.3684Z" fill="white"/>
<path d="M41.9428 90.0499L45.2735 97.8638V90.0499H47.357V99.8876H44.0546L40.6247 91.8207V99.8876H38.5412V90.0499H41.9428Z" fill="white"/>
<path d="M48.6082 94.9828C48.6082 93.5962 49.1043 92.411 50.0964 91.4272C51.0885 90.4434 52.2838 89.9515 53.6822 89.9515C55.0807 89.9515 56.2712 90.4434 57.2539 91.4272C58.246 92.411 58.7468 93.5962 58.7563 94.9828C58.7563 94.9922 58.7563 95.0062 58.7563 95.025C58.7563 96.3835 58.2649 97.55 57.2822 98.5244C56.2807 99.5081 55.0807 100 53.6822 100C52.2838 100 51.0885 99.5128 50.0964 98.5384C49.1043 97.5546 48.6082 96.3694 48.6082 94.9828ZM51.5846 97.1471C52.1421 97.7373 52.8413 98.0325 53.6822 98.0325C54.5232 98.0325 55.2224 97.7373 55.7799 97.1471C56.3468 96.5568 56.6303 95.8354 56.6303 94.9828C56.6303 94.1302 56.3468 93.4088 55.7799 92.8185C55.2224 92.2189 54.5232 91.9191 53.6822 91.9191C52.8507 91.9191 52.1515 92.2189 51.5846 92.8185C51.0177 93.4088 50.7342 94.1302 50.7342 94.9828C50.7342 95.8354 51.0177 96.5568 51.5846 97.1471Z" fill="white"/>
<path d="M59.897 99.8876V90.0499H62.023V97.9341H66.8561V99.8876H59.897Z" fill="white"/>
<path d="M67.003 94.9828C67.003 93.5962 67.4991 92.411 68.4912 91.4272C69.4833 90.4434 70.6786 89.9515 72.077 89.9515C73.4755 89.9515 74.666 90.4434 75.6487 91.4272C76.6408 92.411 77.1416 93.5962 77.1511 94.9828C77.1511 94.9922 77.1511 95.0062 77.1511 95.025C77.1511 96.3835 76.6597 97.55 75.677 98.5244C74.6755 99.5081 73.4755 100 72.077 100C70.6786 100 69.4833 99.5128 68.4912 98.5384C67.4991 97.5546 67.003 96.3694 67.003 94.9828ZM69.9794 97.1471C70.5369 97.7373 71.2361 98.0325 72.077 98.0325C72.918 98.0325 73.6172 97.7373 74.1747 97.1471C74.7416 96.5568 75.0251 95.8354 75.0251 94.9828C75.0251 94.1302 74.7416 93.4088 74.1747 92.8185C73.6172 92.2189 72.918 91.9191 72.077 91.9191C71.2455 91.9191 70.5463 92.2189 69.9794 92.8185C69.4125 93.4088 69.129 94.1302 69.129 94.9828C69.129 95.8354 69.4125 96.5568 69.9794 97.1471Z" fill="white"/>
<path d="M79.4932 91.4272C80.4853 90.4434 81.6806 89.9515 83.079 89.9515C84.0901 89.9515 84.9924 90.2139 85.7861 90.7386C86.5893 91.2632 87.194 91.9706 87.6003 92.8607L85.5735 93.4369C85.3373 92.9684 84.9971 92.6077 84.553 92.3547C84.1089 92.0924 83.6176 91.9612 83.079 91.9612C82.2381 91.9612 81.5341 92.2517 80.9672 92.8326C80.4097 93.4135 80.131 94.1302 80.131 94.9828C80.131 95.8354 80.4097 96.5521 80.9672 97.133C81.5341 97.7045 82.2381 97.9903 83.079 97.9903C83.6838 97.9903 84.2318 97.831 84.7231 97.5125C85.2239 97.1939 85.5877 96.7348 85.8145 96.1352L83.1357 96.1493L83.1074 94.3644H87.8838V95.1655C87.8838 96.5709 87.4255 97.728 86.509 98.6368C85.5924 99.5456 84.4491 100 83.079 100C81.6806 100 80.4853 99.5128 79.4932 98.5384C78.5011 97.5546 78.005 96.3694 78.005 94.9828C78.005 93.5962 78.5011 92.411 79.4932 91.4272Z" fill="white"/>
<path d="M87.8875 90.0499H90.1553L92.3096 94.4769L94.4639 90.0499H96.7317L93.4009 96.8098V99.8876H91.2608V96.866L87.8875 90.0499Z" fill="white"/>
<path d="M60.8333 20.6361L96.7314 83.4042H82.1142L70.7214 63.198L58.8986 83.4042H44.0664L63.1978 50.5154L53.3097 33.3187L60.8333 20.6361Z" fill="white"/>
<path d="M41.272 12.2527L48.3656 24.7203L55.6742 12.2527L48.3656 0L41.272 12.2527Z" fill="white"/>
<path d="M36.7578 20.6361L44.0664 33.3187L14.832 83.4042H-0.000198364L36.7578 20.6361Z" fill="white"/>
</svg>
