<svg width="159" height="24" viewBox="0 0 159 24" fill="none" xmlns="http://www.w3.org/2000/svg">
<g clip-path="url(#clip0_1_233)">
<path d="M10.4451 23.0014C11.8789 23.6438 13.6244 23.9648 15.6815 23.9648C17.614 23.9648 19.2763 23.6644 20.6684 23.0634C22.0607 22.4625 23.1307 21.6234 23.8788 20.5456C24.6477 19.4475 25.032 18.173 25.032 16.7225C25.032 15.3136 24.6686 14.122 23.9411 13.148C23.2348 12.1534 22.2477 11.3764 20.9801 10.8169C19.7127 10.2365 18.2478 9.87404 16.5854 9.72879L14.8399 9.57357C13.7802 9.49066 13.0218 9.21076 12.5646 8.73419C12.1283 8.25762 11.9101 7.69814 11.9101 7.05575C11.9101 6.30988 12.1906 5.66749 12.7516 5.12858C13.3127 4.5691 14.1646 4.28952 15.3075 4.28952C16.4919 4.28952 17.3854 4.60027 17.988 5.22178C18.5906 5.8436 18.8919 6.56889 18.8919 7.39767H23.8788C23.8788 5.9265 23.5359 4.64172 22.8502 3.54333C22.1645 2.42446 21.1777 1.55414 19.8893 0.932478C18.6218 0.310815 17.0945 0 15.3075 0C13.6036 0 12.1283 0.290087 10.8815 0.870327C9.63475 1.42981 8.65814 2.23795 7.95164 3.29492C7.26592 4.35154 6.92307 5.60515 6.92307 7.05575C6.92307 9.0864 7.5984 10.7131 8.94904 11.9359C10.2997 13.1377 12.1075 13.8319 14.3724 14.0182L16.0867 14.1738C17.4789 14.2981 18.4867 14.5777 19.1101 15.0132C19.7335 15.4274 20.0452 15.9972 20.0452 16.7225C20.0452 17.593 19.6712 18.3077 18.9231 18.8672C18.175 19.4061 17.0945 19.6754 15.6815 19.6754C14.0815 19.6754 12.6789 19.23 12.1906 18.712C11.7023 18.1939 -0.282441 3.49159 0.00509142 3.88526C0.292593 4.27892 3.90118 9.06583 5.19987 12.9513C6.49858 16.8365 6.52825 19.1885 7.23475 20.3281C7.96202 21.4679 9.03217 22.359 10.4451 23.0014Z" fill="white"/>
<path d="M32.7218 5.08945V23.3351H37.8335V5.08945H44.2543V0.644531H26.332V5.08945H32.7218Z" fill="white"/>
<path d="M47.4727 0.644531V23.3351H52.148V5.95968L57.4155 18.7349H62.2779L67.5766 5.83532V23.3351H72.6259V0.644531H65.4571L60.3142 13.3885H59.722L54.5168 0.644531H47.4727Z" fill="white"/>
<path d="M81.8928 22.9702C83.4095 23.6332 85.1861 23.9648 87.2227 23.9648C89.4668 23.9648 91.4513 23.5503 93.1762 22.7215C94.4376 22.1 95.4992 21.2846 96.3604 20.2748C96.986 19.5417 97.2282 18.5751 97.2282 17.6123V15.2307H99.0983V11.5628H86.5681V15.2307H92.5217V17.1267C91.9812 17.7897 91.254 18.3286 90.3399 18.7428C89.4254 19.1368 88.3862 19.3335 87.2227 19.3335C85.0614 19.3335 83.3786 18.6602 82.1736 17.3131C80.9892 15.9663 80.3967 14.1841 80.3967 11.967C80.3967 10.5579 80.646 9.31456 81.1447 8.23705C81.6434 7.13866 82.3606 6.289 83.2957 5.68806C84.2513 5.06656 85.394 4.7558 86.724 4.7558C88.2615 4.7558 89.5606 5.13918 90.6204 5.90562C91.6801 6.67237 92.3138 7.67757 92.5217 8.92089H97.6334C97.4669 7.18011 96.9059 5.64661 95.9502 4.32037C94.9943 2.97357 93.7267 1.91676 92.1476 1.15007C90.5683 0.383345 88.7602 0 86.724 0C84.8329 0 83.1601 0.331543 81.7058 0.99466C80.272 1.65775 79.0667 2.5488 78.0902 3.6677C77.1342 4.78666 76.4174 6.02998 75.9395 7.39767C75.4614 8.76536 75.2227 10.1642 75.2227 11.5939V12.2778C75.2227 13.6869 75.4614 15.0855 75.9395 16.474C76.4174 17.8414 77.1445 19.0953 78.1214 20.2349C79.1188 21.3747 80.3758 22.2864 81.8928 22.9702Z" fill="white"/>
<path d="M104.438 23.3742C102.923 23.3742 101.695 22.1496 101.695 20.6391V20.5456C101.695 19.0352 102.923 17.8106 104.438 17.8106C105.953 17.8106 107.181 19.0352 107.181 20.5456V20.6391C107.181 22.1496 105.953 23.3742 104.438 23.3742ZM120.654 23.9648C118.597 23.9648 116.831 23.6126 115.355 22.9079C113.88 22.1829 112.665 21.2401 111.709 20.0796C110.774 18.8983 110.088 17.6345 109.651 16.2873C109.215 14.9196 108.997 13.5934 108.997 12.3089V11.6251C108.997 10.216 109.225 8.82739 109.683 7.46001C110.14 6.07144 110.836 4.81783 111.771 3.69887C112.727 2.57988 113.922 1.68882 115.355 1.02573C116.81 0.341919 118.524 0 120.498 0C122.555 0 124.363 0.383345 125.922 1.15007C127.501 1.91676 128.758 2.98385 129.693 4.35154C130.649 5.71923 131.22 7.30448 131.407 9.10728H126.264C126.036 7.76048 125.402 6.70354 124.363 5.93679C123.324 5.14946 122.036 4.7558 120.498 4.7558C118.462 4.7558 116.893 5.42905 115.792 6.77617C114.711 8.1024 114.171 9.84287 114.171 11.9979C114.171 13.4279 114.42 14.6918 114.919 15.7902C115.418 16.8677 116.145 17.7068 117.101 18.3077C118.077 18.9086 119.262 19.2091 120.654 19.2091C122.233 19.2091 123.563 18.8257 124.644 18.0593C125.745 17.2925 126.41 16.2356 126.638 14.8888H131.75C131.563 16.5672 131.002 18.0901 130.067 19.4578C129.153 20.8255 127.896 21.9239 126.296 22.7527C124.716 23.5609 122.836 23.9648 120.654 23.9648ZM146.05 23.9648C143.993 23.9648 142.196 23.6126 140.658 22.9079C139.142 22.1829 137.884 21.2401 136.887 20.0796C135.889 18.8983 135.141 17.6345 134.643 16.2873C134.165 14.9196 133.926 13.5934 133.926 12.3089V11.6251C133.926 10.216 134.175 8.82739 134.674 7.46001C135.193 6.09232 135.962 4.849 136.98 3.73004C137.999 2.59022 139.266 1.68882 140.783 1.02573C142.3 0.341919 144.056 0 146.05 0C148.045 0 149.801 0.341919 151.318 1.02573C152.835 1.68882 154.103 2.59022 155.121 3.73004C156.139 4.849 156.908 6.09232 157.427 7.46001C157.947 8.82739 158.206 10.216 158.206 11.6251V12.3089C158.206 13.5934 157.957 14.9196 157.458 16.2873C156.96 17.6345 156.211 18.8983 155.214 20.0796C154.217 21.2401 152.949 22.1829 151.411 22.9079C149.895 23.6126 148.108 23.9648 146.05 23.9648ZM146.05 19.2091C147.484 19.2091 148.721 18.8881 149.76 18.2457C150.819 17.6033 151.63 16.733 152.191 15.6347C152.752 14.5363 153.032 13.3241 153.032 11.9979C153.032 10.5887 152.741 9.34572 152.16 8.26791C151.598 7.16983 150.799 6.30988 149.76 5.68806C148.721 5.06656 147.484 4.7558 146.05 4.7558C144.617 4.7558 143.381 5.06656 142.341 5.68806C141.302 6.30988 140.502 7.16983 139.941 8.26791C139.38 9.34572 139.1 10.5887 139.1 11.9979C139.1 13.3241 139.38 14.5363 139.941 15.6347C140.502 16.733 141.302 17.6033 142.341 18.2457C143.381 18.8881 144.617 19.2091 146.05 19.2091Z" fill="white"/>
</g>
<defs>
<clipPath id="clip0_1_233">
<rect width="158.338" height="24" fill="white"/>
</clipPath>
</defs>
</svg>
