<svg width="59" height="60" viewBox="0 0 59 60" fill="none" xmlns="http://www.w3.org/2000/svg">
<path d="M0 54.0302H4.83025V55.2107H3.08694V59.9328H1.81134V55.2107H0V54.0302Z" fill="#797979"/>
<path d="M9.90452 54.0302V55.2023H6.86861V56.4081H9.56436V57.5549H6.86861V58.7607H9.90452V59.9328H5.59301V54.0302H9.90452Z" fill="#797979"/>
<path d="M11.3558 54.8566C11.9511 54.2663 12.6682 53.9712 13.5073 53.9712C14.1082 53.9712 14.6468 54.1342 15.123 54.4603C15.6049 54.7863 15.9706 55.2192 16.22 55.7588L15.004 56.1046C14.8509 55.8235 14.6468 55.5986 14.3917 55.43C14.1366 55.2613 13.8418 55.177 13.5073 55.177C13.0027 55.177 12.5803 55.3513 12.2402 55.6998C11.9057 56.0483 11.7385 56.4784 11.7385 56.9899C11.7385 57.5015 11.9057 57.9316 12.2402 58.2801C12.5803 58.623 13.0027 58.7945 13.5073 58.7945C14.1763 58.7945 14.6666 58.4993 14.9785 57.9091L16.2115 58.2379C15.9678 58.772 15.6049 59.1992 15.123 59.5196C14.6468 59.8401 14.1082 60.0003 13.5073 60.0003C12.6682 60.0003 11.9511 59.708 11.3558 59.1233C10.7605 58.5331 10.4629 57.8219 10.4629 56.9899C10.4629 56.158 10.7605 55.4468 11.3558 54.8566Z" fill="#797979"/>
<path d="M18.2211 54.0302V56.4081H20.8913V54.0302H22.1669V59.9328H20.8913V57.5465H18.2211V59.9328H16.9455V54.0302H18.2211Z" fill="#797979"/>
<path d="M25.1657 54.0302L27.1641 58.7186V54.0302H28.4142V59.9328H26.4328L24.3748 55.0927V59.9328H23.1247V54.0302H25.1657Z" fill="#797979"/>
<path d="M29.1649 56.9899C29.1649 56.158 29.4626 55.4468 30.0578 54.8566C30.6531 54.2663 31.3703 53.9712 32.2093 53.9712C33.0484 53.9712 33.7627 54.2663 34.3523 54.8566C34.9476 55.4468 35.2481 56.158 35.2538 56.9899C35.2538 56.9956 35.2538 57.004 35.2538 57.0152C35.2538 57.8304 34.959 58.5302 34.3693 59.1149C33.7684 59.7051 33.0484 60.0003 32.2093 60.0003C31.3703 60.0003 30.6531 59.708 30.0578 59.1233C29.4626 58.5331 29.1649 57.8219 29.1649 56.9899ZM30.9508 58.2885C31.2852 58.6427 31.7048 58.8198 32.2093 58.8198C32.7139 58.8198 33.1334 58.6427 33.4679 58.2885C33.8081 57.9344 33.9782 57.5015 33.9782 56.9899C33.9782 56.4784 33.8081 56.0455 33.4679 55.6914C33.1334 55.3316 32.7139 55.1517 32.2093 55.1517C31.7104 55.1517 31.2909 55.3316 30.9508 55.6914C30.6106 56.0455 30.4405 56.4784 30.4405 56.9899C30.4405 57.5015 30.6106 57.9344 30.9508 58.2885Z" fill="#797979"/>
<path d="M35.9382 59.9328V54.0302H37.2138V58.7607H40.1136V59.9328H35.9382Z" fill="#797979"/>
<path d="M40.2018 56.9899C40.2018 56.158 40.4994 55.4468 41.0947 54.8566C41.69 54.2663 42.4072 53.9712 43.2462 53.9712C44.0853 53.9712 44.7996 54.2663 45.3892 54.8566C45.9845 55.4468 46.285 56.158 46.2906 56.9899C46.2906 56.9956 46.2906 57.004 46.2906 57.0152C46.2906 57.8304 45.9958 58.5302 45.4062 59.1149C44.8053 59.7051 44.0853 60.0003 43.2462 60.0003C42.4072 60.0003 41.69 59.708 41.0947 59.1233C40.4994 58.5331 40.2018 57.8219 40.2018 56.9899ZM41.9876 58.2885C42.3221 58.6427 42.7416 58.8198 43.2462 58.8198C43.7508 58.8198 44.1703 58.6427 44.5048 58.2885C44.845 57.9344 45.015 57.5015 45.015 56.9899C45.015 56.4784 44.845 56.0455 44.5048 55.6914C44.1703 55.3316 43.7508 55.1517 43.2462 55.1517C42.7473 55.1517 42.3278 55.3316 41.9876 55.6914C41.6475 56.0455 41.4774 56.4784 41.4774 56.9899C41.4774 57.5015 41.6475 57.9344 41.9876 58.2885Z" fill="#797979"/>
<path d="M47.6959 54.8566C48.2912 54.2663 49.0084 53.9712 49.8474 53.9712C50.454 53.9712 50.9954 54.1286 51.4717 54.4434C51.9536 54.7582 52.3164 55.1826 52.5602 55.7167L51.3441 56.0624C51.2024 55.7813 50.9983 55.5649 50.7318 55.4131C50.4654 55.2557 50.1706 55.177 49.8474 55.177C49.3428 55.177 48.9205 55.3513 48.5803 55.6998C48.2458 56.0483 48.0786 56.4784 48.0786 56.9899C48.0786 57.5015 48.2458 57.9316 48.5803 58.2801C48.9205 58.623 49.3428 58.7945 49.8474 58.7945C50.2103 58.7945 50.5391 58.6989 50.8339 58.5078C51.1343 58.3166 51.3526 58.0412 51.4887 57.6814L49.8814 57.6898L49.8644 56.6189H52.7303V57.0996C52.7303 57.9428 52.4553 58.6371 51.9054 59.1823C51.3554 59.7276 50.6695 60.0003 49.8474 60.0003C49.0084 60.0003 48.2912 59.708 47.6959 59.1233C47.1006 58.5331 46.803 57.8219 46.803 56.9899C46.803 56.158 47.1006 55.4468 47.6959 54.8566Z" fill="#797979"/>
<path d="M52.7325 54.0302H54.0932L55.3858 56.6864L56.6784 54.0302H58.039L56.0406 58.0861V59.9328H54.7565V58.1199L52.7325 54.0302Z" fill="#797979"/>
<path d="M36.5 12.3816L58.0389 50.0425H49.2686L42.4329 37.9188L35.3392 50.0425H26.4399L37.9188 30.3092L31.9859 19.9912L36.5 12.3816Z" fill="#41434E"/>
<path d="M24.7633 7.3516L29.0194 14.8322L33.4046 7.3516L29.0194 0L24.7633 7.3516Z" fill="#41434E"/>
<path d="M22.0548 12.3816L26.4399 19.9912L8.89927 50.0425H-4.57764e-05L22.0548 12.3816Z" fill="#41434E"/>
</svg>
