<svg width="212" height="32" viewBox="0 0 212 32" fill="none" xmlns="http://www.w3.org/2000/svg">
<path d="M13.9269 30.6686C15.8385 31.5251 18.1658 31.9531 20.9087 31.9531C23.4853 31.9531 25.7018 31.5525 27.5579 30.7513C29.4143 29.95 30.841 28.8313 31.8384 27.3942C32.8636 25.9301 33.376 24.2307 33.376 22.2966C33.376 20.4182 32.8915 18.8294 31.9215 17.5307C30.9798 16.2046 29.6636 15.1685 27.9734 14.4225C26.2836 13.6487 24.3304 13.1654 22.1139 12.9717L19.7866 12.7648C18.3736 12.6542 17.3624 12.281 16.7528 11.6456C16.171 11.0102 15.8801 10.2642 15.8801 9.40767C15.8801 8.41317 16.2541 7.55666 17.0022 6.83811C17.7502 6.09214 18.8862 5.71936 20.41 5.71936C21.9892 5.71936 23.1806 6.13369 23.984 6.96237C24.7875 7.79146 25.1892 8.75852 25.1892 9.86356H31.8384C31.8384 7.90201 31.3812 6.18897 30.467 4.72445C29.5527 3.23262 28.2369 2.07219 26.5191 1.2433C24.8291 0.41442 22.7927 0 20.41 0C18.1381 0 16.171 0.386783 14.5087 1.16044C12.8463 1.90641 11.5442 2.98394 10.6022 4.39323C9.6879 5.80206 9.23075 7.47354 9.23075 9.40767C9.23075 12.1152 10.1312 14.2841 11.9321 15.9145C13.7329 17.517 16.1433 18.4425 19.1632 18.691L21.449 18.8984C23.3052 19.0642 24.649 19.437 25.4801 20.0175C26.3113 20.5699 26.7269 21.3295 26.7269 22.2966C26.7269 23.4573 26.2282 24.4103 25.2308 25.1562C24.2334 25.8748 22.7927 26.2339 20.9087 26.2339C18.7754 26.2339 16.9051 25.64 16.2541 24.9493C15.6031 24.2586 -0.376588 4.65546 0.00678856 5.18034C0.390124 5.70523 5.20158 12.0878 6.93315 17.2684C8.66477 22.4487 8.70433 25.5847 9.64634 27.1041C10.616 28.6239 12.0429 29.812 13.9269 30.6686Z" fill="black"/>
<path d="M43.6291 6.78593V31.1134H50.4446V6.78593H59.0057V0.859375H35.1094V6.78593H43.6291Z" fill="black"/>
<path d="M63.2969 0.859375V31.1134H69.5306V7.94624L76.554 24.9798H83.0371L90.1021 7.78042V31.1134H96.8345V0.859375H87.2761L80.419 17.8513H79.6293L72.6891 0.859375H63.2969Z" fill="black"/>
<path d="M109.19 30.627C111.213 31.5109 113.581 31.9531 116.297 31.9531C119.289 31.9531 121.935 31.4004 124.235 30.2954C125.917 29.4667 127.332 28.3795 128.481 27.033C129.315 26.0556 129.638 24.7668 129.638 23.4831V20.3076H132.131V15.417H115.424V20.3076H123.362V22.8356C122.642 23.7196 121.672 24.4381 120.453 24.9904C119.234 25.5157 117.848 25.778 116.297 25.778C113.415 25.778 111.171 24.8803 109.565 23.0841C107.986 21.2884 107.196 18.9121 107.196 15.956C107.196 14.0772 107.528 12.4194 108.193 10.9827C108.858 9.51821 109.814 8.38533 111.061 7.58408C112.335 6.75541 113.859 6.34107 115.632 6.34107C117.682 6.34107 119.414 6.85224 120.827 7.87416C122.24 8.8965 123.085 10.2368 123.362 11.8945H130.178C129.956 9.57349 129.208 7.52881 127.934 5.7605C126.659 3.96476 124.969 2.55568 122.864 1.53342C120.758 0.511127 118.347 0 115.632 0C113.111 0 110.88 0.442057 108.941 1.32621C107.029 2.21033 105.422 3.3984 104.12 4.89027C102.846 6.38221 101.89 8.03998 101.253 9.86356C100.615 11.6871 100.297 13.5523 100.297 15.4586V16.3704C100.297 18.2492 100.615 20.114 101.253 21.9654C101.89 23.7886 102.859 25.4604 104.162 26.9798C105.492 28.4996 107.168 29.7152 109.19 30.627Z" fill="black"/>
<path d="M139.251 31.1656C137.231 31.1656 135.594 29.5328 135.594 27.5188V27.3942C135.594 25.3802 137.231 23.7474 139.251 23.7474C141.271 23.7474 142.908 25.3802 142.908 27.3942V27.5188C142.908 29.5328 141.271 31.1656 139.251 31.1656ZM160.872 31.9531C158.129 31.9531 155.774 31.4835 153.807 30.5439C151.84 29.5772 150.219 28.3201 148.945 26.7729C147.698 25.1978 146.784 23.5126 146.202 21.7164C145.62 19.8929 145.329 18.1246 145.329 16.4119V15.5001C145.329 13.6213 145.634 11.7699 146.244 9.94668C146.853 8.09525 147.781 6.42377 149.028 4.93182C150.303 3.43983 151.895 2.25176 153.807 1.36764C155.747 0.455892 158.032 0 160.664 0C163.407 0 165.818 0.511127 167.895 1.53342C170.001 2.55568 171.677 3.97847 172.924 5.80206C174.199 7.62564 174.96 9.7393 175.21 12.143H168.353C168.048 10.3473 167.203 8.93806 165.818 7.91572C164.432 6.86595 162.714 6.34107 160.664 6.34107C157.949 6.34107 155.857 7.23873 154.389 9.03489C152.948 10.8032 152.228 13.1238 152.228 15.9972C152.228 17.9039 152.56 19.5891 153.225 21.0536C153.89 22.4903 154.86 23.609 156.134 24.4103C157.436 25.2115 159.016 25.6121 160.872 25.6121C162.978 25.6121 164.751 25.101 166.192 24.079C167.66 23.0567 168.547 21.6475 168.851 19.8517H175.667C175.418 22.0896 174.669 24.1202 173.423 25.9438C172.204 27.7674 170.527 29.2319 168.394 30.3369C166.288 31.4145 163.781 31.9531 160.872 31.9531ZM194.734 31.9531C191.991 31.9531 189.595 31.4835 187.544 30.5439C185.522 29.5772 183.846 28.3201 182.516 26.7729C181.186 25.1978 180.188 23.5126 179.524 21.7164C178.886 19.8929 178.568 18.1246 178.568 16.4119V15.5001C178.568 13.6213 178.9 11.7699 179.565 9.94668C180.258 8.1231 181.283 6.46533 182.64 4.97338C183.998 3.45363 185.688 2.25176 187.711 1.36764C189.733 0.455892 192.074 0 194.734 0C197.394 0 199.735 0.455892 201.757 1.36764C203.78 2.25176 205.47 3.45363 206.827 4.97338C208.185 6.46533 209.21 8.1231 209.903 9.94668C210.596 11.7699 210.942 13.6213 210.942 15.5001V16.4119C210.942 18.1246 210.609 19.8929 209.944 21.7164C209.279 23.5126 208.282 25.1978 206.952 26.7729C205.622 28.3201 203.932 29.5772 201.882 30.5439C199.86 31.4835 197.477 31.9531 194.734 31.9531ZM194.734 25.6121C196.646 25.6121 198.294 25.1841 199.679 24.3276C201.092 23.471 202.173 22.3107 202.921 20.8462C203.669 19.3817 204.043 17.7655 204.043 15.9972C204.043 14.1183 203.655 12.461 202.879 11.0239C202.131 9.55977 201.065 8.41317 199.679 7.58408C198.294 6.75541 196.646 6.34107 194.734 6.34107C192.822 6.34107 191.174 6.75541 189.788 7.58408C188.403 8.41317 187.337 9.55977 186.588 11.0239C185.84 12.461 185.466 14.1183 185.466 15.9972C185.466 17.7655 185.84 19.3817 186.588 20.8462C187.337 22.3107 188.403 23.471 189.788 24.3276C191.174 25.1841 192.822 25.6121 194.734 25.6121Z" fill="black"/>
</svg>
