<svg width="212" height="72" viewBox="0 0 212 72" fill="none" xmlns="http://www.w3.org/2000/svg">
<path d="M13.9269 50.6686C15.8385 51.5251 18.1658 51.9531 20.9087 51.9531C23.4853 51.9531 25.7018 51.5525 27.5579 50.7513C29.4143 49.95 30.841 48.8313 31.8384 47.3942C32.8636 45.9301 33.376 44.2307 33.376 42.2966C33.376 40.4182 32.8915 38.8294 31.9215 37.5307C30.9798 36.2046 29.6636 35.1685 27.9734 34.4225C26.2836 33.6487 24.3304 33.1654 22.1139 32.9717L19.7866 32.7648C18.3736 32.6542 17.3624 32.281 16.7528 31.6456C16.171 31.0102 15.8801 30.2642 15.8801 29.4077C15.8801 28.4132 16.2541 27.5567 17.0022 26.8381C17.7502 26.0921 18.8862 25.7194 20.41 25.7194C21.9892 25.7194 23.1806 26.1337 23.984 26.9624C24.7875 27.7915 25.1892 28.7585 25.1892 29.8636H31.8384C31.8384 27.902 31.3812 26.189 30.467 24.7244C29.5527 23.2326 28.2369 22.0722 26.5191 21.2433C24.8291 20.4144 22.7927 20 20.41 20C18.1381 20 16.171 20.3868 14.5087 21.1604C12.8463 21.9064 11.5442 22.9839 10.6022 24.3932C9.6879 25.8021 9.23075 27.4735 9.23075 29.4077C9.23075 32.1152 10.1312 34.2841 11.9321 35.9145C13.7329 37.517 16.1433 38.4425 19.1632 38.691L21.449 38.8984C23.3052 39.0642 24.649 39.437 25.4801 40.0175C26.3113 40.5699 26.7269 41.3295 26.7269 42.2966C26.7269 43.4573 26.2282 44.4103 25.2308 45.1562C24.2334 45.8748 22.7927 46.2339 20.9087 46.2339C18.7754 46.2339 16.9051 45.64 16.2541 44.9493C15.6031 44.2586 -0.376588 24.6555 0.00678856 25.1803C0.390124 25.7052 5.20158 32.0878 6.93315 37.2684C8.66477 42.4487 8.70433 45.5847 9.64634 47.1041C10.616 48.6239 12.0429 49.812 13.9269 50.6686Z" fill="black"/>
<path d="M43.6291 26.7859V51.1134H50.4446V26.7859H59.0057V20.8594H35.1094V26.7859H43.6291Z" fill="black"/>
<path d="M63.2969 20.8594V51.1134H69.5306V27.9462L76.554 44.9798H83.0371L90.1021 27.7804V51.1134H96.8345V20.8594H87.2761L80.419 37.8513H79.6293L72.6891 20.8594H63.2969Z" fill="black"/>
<path d="M109.19 50.627C111.213 51.5109 113.581 51.9531 116.297 51.9531C119.289 51.9531 121.935 51.4004 124.235 50.2954C125.917 49.4667 127.332 48.3795 128.481 47.033C129.315 46.0556 129.638 44.7668 129.638 43.4831V40.3076H132.131V35.417H115.424V40.3076H123.362V42.8356C122.642 43.7196 121.672 44.4381 120.453 44.9904C119.234 45.5157 117.848 45.778 116.297 45.778C113.415 45.778 111.171 44.8803 109.565 43.0841C107.986 41.2884 107.196 38.9121 107.196 35.956C107.196 34.0772 107.528 32.4194 108.193 30.9827C108.858 29.5182 109.814 28.3853 111.061 27.5841C112.335 26.7554 113.859 26.3411 115.632 26.3411C117.682 26.3411 119.414 26.8522 120.827 27.8742C122.24 28.8965 123.085 30.2368 123.362 31.8945H130.178C129.956 29.5735 129.208 27.5288 127.934 25.7605C126.659 23.9648 124.969 22.5557 122.864 21.5334C120.758 20.5111 118.347 20 115.632 20C113.111 20 110.88 20.4421 108.941 21.3262C107.029 22.2103 105.422 23.3984 104.12 24.8903C102.846 26.3822 101.89 28.04 101.253 29.8636C100.615 31.6871 100.297 33.5523 100.297 35.4586V36.3704C100.297 38.2492 100.615 40.114 101.253 41.9654C101.89 43.7886 102.859 45.4604 104.162 46.9798C105.492 48.4996 107.168 49.7152 109.19 50.627Z" fill="black"/>
<path d="M139.251 51.1656C137.231 51.1656 135.594 49.5328 135.594 47.5188V47.3942C135.594 45.3802 137.231 43.7474 139.251 43.7474C141.271 43.7474 142.908 45.3802 142.908 47.3942V47.5188C142.908 49.5328 141.271 51.1656 139.251 51.1656ZM160.872 51.9531C158.129 51.9531 155.774 51.4835 153.807 50.5439C151.84 49.5772 150.219 48.3201 148.945 46.7729C147.698 45.1978 146.784 43.5126 146.202 41.7164C145.62 39.8929 145.329 38.1246 145.329 36.4119V35.5001C145.329 33.6213 145.634 31.7699 146.244 29.9467C146.853 28.0953 147.781 26.4238 149.028 24.9318C150.303 23.4398 151.895 22.2518 153.807 21.3676C155.747 20.4559 158.032 20 160.664 20C163.407 20 165.818 20.5111 167.895 21.5334C170.001 22.5557 171.677 23.9785 172.924 25.8021C174.199 27.6256 174.96 29.7393 175.21 32.143H168.353C168.048 30.3473 167.203 28.9381 165.818 27.9157C164.432 26.866 162.714 26.3411 160.664 26.3411C157.949 26.3411 155.857 27.2387 154.389 29.0349C152.948 30.8032 152.228 33.1238 152.228 35.9972C152.228 37.9039 152.56 39.5891 153.225 41.0536C153.89 42.4903 154.86 43.609 156.134 44.4103C157.436 45.2115 159.016 45.6121 160.872 45.6121C162.978 45.6121 164.751 45.101 166.192 44.079C167.66 43.0567 168.547 41.6475 168.851 39.8517H175.667C175.418 42.0896 174.669 44.1202 173.423 45.9438C172.204 47.7674 170.527 49.2319 168.394 50.3369C166.288 51.4145 163.781 51.9531 160.872 51.9531ZM194.734 51.9531C191.991 51.9531 189.595 51.4835 187.544 50.5439C185.522 49.5772 183.846 48.3201 182.516 46.7729C181.186 45.1978 180.188 43.5126 179.524 41.7164C178.886 39.8929 178.568 38.1246 178.568 36.4119V35.5001C178.568 33.6213 178.9 31.7699 179.565 29.9467C180.258 28.1231 181.283 26.4653 182.64 24.9734C183.998 23.4536 185.688 22.2518 187.711 21.3676C189.733 20.4559 192.074 20 194.734 20C197.394 20 199.735 20.4559 201.757 21.3676C203.78 22.2518 205.47 23.4536 206.827 24.9734C208.185 26.4653 209.21 28.1231 209.903 29.9467C210.596 31.7699 210.942 33.6213 210.942 35.5001V36.4119C210.942 38.1246 210.609 39.8929 209.944 41.7164C209.279 43.5126 208.282 45.1978 206.952 46.7729C205.622 48.3201 203.932 49.5772 201.882 50.5439C199.86 51.4835 197.477 51.9531 194.734 51.9531ZM194.734 45.6121C196.646 45.6121 198.294 45.1841 199.679 44.3276C201.092 43.471 202.173 42.3107 202.921 40.8462C203.669 39.3817 204.043 37.7655 204.043 35.9972C204.043 34.1183 203.655 32.461 202.879 31.0239C202.131 29.5598 201.065 28.4132 199.679 27.5841C198.294 26.7554 196.646 26.3411 194.734 26.3411C192.822 26.3411 191.174 26.7554 189.788 27.5841C188.403 28.4132 187.337 29.5598 186.588 31.0239C185.84 32.461 185.466 34.1183 185.466 35.9972C185.466 37.7655 185.84 39.3817 186.588 40.8462C187.337 42.3107 188.403 43.471 189.788 44.3276C191.174 45.1841 192.822 45.6121 194.734 45.6121Z" fill="black"/>
</svg>
