<svg width="948" height="464" viewBox="0 0 948 464" fill="none" xmlns="http://www.w3.org/2000/svg">
<g clip-path="url(#clip0_1_276)">
<rect width="948" height="464" fill="#DDDA01"/>
<path d="M-170.331 164.751C-35.1825 196.535 263.838 224.067 378.736 79.9179C522.359 -100.268 660.476 -173.372 958.938 -98.1013M1240.72 254.494C1183.77 236.065 923.373 175.166 740.451 363.931C613.152 495.297 594.624 794.427 225.251 730.845" stroke="#E9E804" stroke-opacity="0.7" stroke-width="209"/>
<path d="M305.522 218L308.642 201.8H291.962C290.762 201.8 290.402 201.2 290.402 200.12V148.64C290.402 147.56 290.762 146.96 291.962 146.96H308.642L305.642 130.76H283.082C277.202 130.76 272.522 134.6 272.522 141.44V204.8C272.522 214.4 275.882 218 285.842 218H305.522ZM340.512 146C341.712 146 342.072 146.6 342.072 147.68V200.96C342.072 202.28 341.832 202.76 340.392 202.76H333.792C332.352 202.76 332.112 202.28 332.112 200.96V147.68C332.112 146.6 332.472 146 333.672 146H340.512ZM359.712 142.04C359.712 135.2 356.232 130.76 348.072 130.76H326.232C318.072 130.76 314.592 135.2 314.592 142.04V205.64C314.592 212.24 317.232 218 326.952 218H347.352C357.072 218 359.712 212.24 359.712 205.64V142.04ZM369.018 130.76L364.458 146.96H376.098V218H393.858V146.96H405.498L401.178 130.76H369.018ZM436.374 146C437.574 146 437.934 146.6 437.934 147.68V166.76C437.934 168.32 436.974 169.04 435.774 169.04H427.614V146H436.374ZM438.174 200.96C438.174 202.28 437.814 202.76 436.374 202.76H427.614V182.24H435.534C437.094 182.24 438.174 182.84 438.174 184.76V200.96ZM454.614 142.4C454.614 134.6 450.774 130.76 442.974 130.76H410.334V218H441.894C451.854 218 455.454 214.16 455.454 204.56V182C455.454 178.16 453.414 174.56 448.614 174.32C453.174 173.12 454.614 169.76 454.614 165.44V142.4ZM488.52 146C489.72 146 490.08 146.6 490.08 147.68V200.96C490.08 202.28 489.84 202.76 488.4 202.76H481.8C480.36 202.76 480.12 202.28 480.12 200.96V147.68C480.12 146.6 480.48 146 481.68 146H488.52ZM507.72 142.04C507.72 135.2 504.24 130.76 496.08 130.76H474.24C466.08 130.76 462.6 135.2 462.6 142.04V205.64C462.6 212.24 465.24 218 474.96 218H495.36C505.08 218 507.72 212.24 507.72 205.64V142.04ZM540.906 146C542.106 146 542.466 146.6 542.466 147.68V178.64C542.466 179.96 542.226 180.44 540.786 180.44H532.146V146H540.906ZM559.386 141.92C559.386 135.08 555.786 130.76 547.626 130.76H514.866V218H532.146V194.84H547.626C555.786 194.84 559.386 190.4 559.386 183.56V141.92ZM583.954 130.76H566.194V218H583.954V214.4L594.634 164.48V218H612.394V130.76H594.634V134.36L583.954 184.4V130.76ZM647.471 211.76L658.511 176.96V218H675.431V130.76H656.951L647.471 167.72L637.991 130.76H619.631V218H636.551V176.96L647.471 211.76ZM193.192 250.76H175.432V338H193.192V301.76H196.792L206.512 338H225.832L212.152 290.96L219.112 267.8C219.352 267.08 219.472 266.96 220.312 266.96H226.432L223.432 250.76H210.592C208.792 250.76 207.352 251.48 206.752 253.28L195.592 288.32H193.192V250.76ZM257.253 266C258.453 266 258.813 266.6 258.813 267.68V298.64C258.813 299.96 258.573 300.44 257.133 300.44H248.493V266H257.253ZM275.733 261.92C275.733 255.08 272.133 250.76 263.973 250.76H231.213V338H248.493V314.84H263.973C272.133 314.84 275.733 310.4 275.733 303.56V261.92ZM317.341 250.76L309.181 294.8L298.621 250.76H280.141L300.301 318.8C301.021 320.84 300.181 321.8 298.381 321.8H286.621L289.621 338H303.301C312.061 338 314.701 334.04 316.141 327.44L334.741 250.76H317.341ZM341.655 250.76L337.095 266.96H348.735V338H366.495V266.96H378.135L373.815 250.76H341.655ZM408.891 266C410.091 266 410.451 266.6 410.451 267.68V320.96C410.451 322.28 410.211 322.76 408.771 322.76H402.171C400.731 322.76 400.491 322.28 400.491 320.96V267.68C400.491 266.6 400.851 266 402.051 266H408.891ZM428.091 262.04C428.091 255.2 424.611 250.76 416.451 250.76H394.611C386.451 250.76 382.971 255.2 382.971 262.04V325.64C382.971 332.24 385.611 338 395.331 338H415.731C425.451 338 428.091 332.24 428.091 325.64V262.04ZM435.237 338H468.357L471.357 321.8H453.117V302.84H467.517V287.84H453.117V266.96H472.077L469.077 250.76H435.237V338ZM519.167 266C520.367 266 520.727 266.6 520.727 267.68V286.76C520.727 288.32 519.767 289.04 518.567 289.04H510.407V266H519.167ZM520.967 320.96C520.967 322.28 520.607 322.76 519.167 322.76H510.407V302.24H518.327C519.887 302.24 520.967 302.84 520.967 304.76V320.96ZM537.407 262.4C537.407 254.6 533.567 250.76 525.767 250.76H493.127V338H524.687C534.647 338 538.247 334.16 538.247 324.56V302C538.247 298.16 536.207 294.56 531.407 294.32C535.967 293.12 537.407 289.76 537.407 285.44V262.4ZM573.233 331.76L584.273 296.96V338H601.193V250.76H582.713L573.233 287.72L563.753 250.76H545.393V338H562.313V296.96L573.233 331.76ZM608.44 338H641.56L644.56 321.8H626.32V302.84H640.72V287.84H626.32V266.96H645.28L642.28 250.76H608.44V338ZM684.33 338L687.45 321.8H670.77C669.57 321.8 669.21 321.2 669.21 320.12V268.64C669.21 267.56 669.57 266.96 670.77 266.96H687.45L684.45 250.76H661.89C656.01 250.76 651.33 254.6 651.33 261.44V324.8C651.33 334.4 654.69 338 664.65 338H684.33ZM695.561 250.76L691.001 266.96H702.641V338H720.401V266.96H732.041L727.721 250.76H695.561ZM736.877 338H769.997L772.997 321.8H754.757V302.84H769.157V287.84H754.757V266.96H773.717L770.717 250.76H736.877V338Z" fill="white"/>
</g>
<defs>
<clipPath id="clip0_1_276">
<rect width="948" height="464" fill="white"/>
</clipPath>
</defs>
</svg>
