<svg width="464" height="222" viewBox="0 0 464 222" fill="none" xmlns="http://www.w3.org/2000/svg">
<rect width="464" height="222" fill="#F6F6F6"/>
<path d="M221.051 154.66C219.75 154.66 218.713 154.545 217.94 154.314C217.174 154.077 216.622 153.687 216.283 153.145C215.951 152.596 215.785 151.854 215.785 150.918V148.783C215.785 147.848 215.951 147.109 216.283 146.567C216.622 146.018 217.174 145.628 217.94 145.398C218.713 145.161 219.75 145.042 221.051 145.042H221.641C222.942 145.042 223.976 145.161 224.742 145.398C225.508 145.635 226.057 146.028 226.389 146.577C226.721 147.119 226.887 147.855 226.887 148.783V150.918C226.887 151.847 226.721 152.586 226.389 153.135C226.057 153.677 225.508 154.067 224.742 154.304C223.976 154.541 222.942 154.66 221.641 154.66H221.051ZM221.051 152.952H221.641C222.658 152.952 223.417 152.904 223.918 152.809C224.427 152.708 224.762 152.508 224.925 152.21C225.094 151.905 225.179 151.454 225.179 150.857V148.844C225.179 148.241 225.094 147.79 224.925 147.492C224.762 147.194 224.427 146.997 223.918 146.902C223.417 146.801 222.658 146.75 221.641 146.75H221.051C220.028 146.75 219.262 146.801 218.754 146.902C218.245 146.997 217.906 147.194 217.737 147.492C217.574 147.79 217.493 148.241 217.493 148.844V150.857C217.493 151.454 217.574 151.905 217.737 152.21C217.906 152.508 218.245 152.708 218.754 152.809C219.262 152.904 220.028 152.952 221.051 152.952Z" fill="black"/>
<path d="M235.005 154.66C233.704 154.66 232.667 154.545 231.894 154.314C231.128 154.077 230.576 153.687 230.237 153.145C229.905 152.596 229.739 151.854 229.739 150.918V148.783C229.739 147.848 229.905 147.109 230.237 146.567C230.576 146.018 231.128 145.628 231.894 145.398C232.667 145.161 233.704 145.042 235.005 145.042H237.872C238.408 145.042 238.848 145.133 239.194 145.316C239.547 145.493 239.808 145.767 239.977 146.14C240.146 146.506 240.231 146.974 240.231 147.543C240.231 147.909 240.157 148.19 240.008 148.387C239.865 148.583 239.655 148.682 239.377 148.682C239.106 148.682 238.896 148.59 238.747 148.407C238.598 148.217 238.523 147.956 238.523 147.624C238.523 147.285 238.469 147.055 238.36 146.933C238.252 146.811 238.042 146.75 237.73 146.75H235.005C233.982 146.75 233.216 146.801 232.708 146.902C232.199 146.997 231.86 147.194 231.691 147.492C231.528 147.79 231.447 148.241 231.447 148.844V150.857C231.447 151.454 231.528 151.905 231.691 152.21C231.86 152.508 232.199 152.708 232.708 152.809C233.216 152.904 233.982 152.952 235.005 152.952H237.73C238.049 152.952 238.259 152.894 238.36 152.779C238.469 152.664 238.523 152.437 238.523 152.098C238.523 151.779 238.594 151.522 238.737 151.325C238.879 151.122 239.086 151.02 239.357 151.02C239.621 151.02 239.831 151.118 239.987 151.315C240.15 151.505 240.231 151.793 240.231 152.179C240.231 152.742 240.146 153.209 239.977 153.582C239.808 153.948 239.547 154.219 239.194 154.395C238.848 154.572 238.408 154.66 237.872 154.66H235.005Z" fill="black"/>
<path d="M244.176 154.802C243.607 154.802 243.322 154.477 243.322 153.826V145.896C243.322 145.232 243.594 144.9 244.136 144.9C244.732 144.9 245.03 145.232 245.03 145.896V148.722H251.903V145.896C251.903 145.232 252.188 144.9 252.757 144.9C253.327 144.9 253.611 145.232 253.611 145.896V153.826C253.611 154.477 253.327 154.802 252.757 154.802C252.188 154.802 251.903 154.477 251.903 153.826V150.43H245.03V153.826C245.03 154.477 244.746 154.802 244.176 154.802Z" fill="black"/>
<path d="M262 154.66C260.699 154.66 259.662 154.545 258.889 154.314C258.123 154.077 257.571 153.687 257.232 153.145C256.9 152.596 256.734 151.854 256.734 150.918V148.783C256.734 147.848 256.9 147.109 257.232 146.567C257.571 146.018 258.123 145.628 258.889 145.398C259.662 145.161 260.699 145.042 262 145.042H262.59C263.891 145.042 264.925 145.161 265.691 145.398C266.457 145.635 267.006 146.028 267.338 146.577C267.67 147.119 267.836 147.855 267.836 148.783V150.918C267.836 151.847 267.67 152.586 267.338 153.135C267.006 153.677 266.457 154.067 265.691 154.304C264.925 154.541 263.891 154.66 262.59 154.66H262ZM262 152.952H262.59C263.606 152.952 264.366 152.904 264.867 152.809C265.375 152.708 265.711 152.508 265.874 152.21C266.043 151.905 266.128 151.454 266.128 150.857V148.844C266.128 148.241 266.043 147.79 265.874 147.492C265.711 147.194 265.375 146.997 264.867 146.902C264.366 146.801 263.606 146.75 262.59 146.75H262C260.977 146.75 260.211 146.801 259.702 146.902C259.194 146.997 258.855 147.194 258.686 147.492C258.523 147.79 258.442 148.241 258.442 148.844V150.857C258.442 151.454 258.523 151.905 258.686 152.21C258.855 152.508 259.194 152.708 259.702 152.809C260.211 152.904 260.977 152.952 262 152.952Z" fill="black"/>
<path d="M270.993 154.66V145.042H277.845C278.984 145.042 279.875 145.289 280.519 145.784C281.163 146.272 281.485 146.953 281.485 147.828C281.485 148.268 281.407 148.651 281.251 148.976C281.095 149.302 280.865 149.566 280.56 149.769C281.176 150.271 281.485 150.966 281.485 151.854C281.485 152.437 281.339 152.938 281.048 153.358C280.756 153.779 280.339 154.101 279.797 154.324C279.255 154.548 278.604 154.66 277.845 154.66H270.993ZM272.701 152.952H277.703C279.085 152.952 279.777 152.626 279.777 151.976C279.777 151.454 279.624 151.088 279.319 150.878C279.021 150.661 278.509 150.552 277.784 150.552H272.701V152.952ZM272.701 148.844H277.784C278.611 148.844 279.153 148.773 279.411 148.631C279.668 148.482 279.797 148.18 279.797 147.726C279.797 147.075 279.099 146.75 277.703 146.75H272.701V148.844Z" fill="black"/>
<path d="M293.128 154.802C292.958 154.802 292.819 154.751 292.711 154.65C292.602 154.555 292.521 154.348 292.467 154.029C292.419 153.711 292.396 153.223 292.396 152.565L292.619 153.094C292.192 153.684 291.657 154.094 291.013 154.324C290.376 154.548 289.623 154.66 288.756 154.66H286.865C286.126 154.66 285.523 154.416 285.055 153.928C284.594 153.433 284.364 152.687 284.364 151.691C284.364 151.067 284.465 150.542 284.669 150.115C284.872 149.681 285.187 149.332 285.614 149.068C286.041 148.797 286.587 148.6 287.251 148.478C287.915 148.356 288.708 148.295 289.63 148.295H293.067L292.294 148.987V147.482C292.294 147.184 292.243 146.987 292.141 146.892C292.046 146.797 291.833 146.75 291.501 146.75H288.634C287.949 146.75 287.424 146.767 287.058 146.801C286.699 146.835 286.448 146.902 286.306 147.004C286.163 147.099 286.085 147.238 286.072 147.421C286.045 147.773 285.98 148.034 285.879 148.204C285.777 148.373 285.557 148.458 285.218 148.458C284.648 148.458 284.364 148.092 284.364 147.36C284.364 146.553 284.699 145.967 285.37 145.601C286.041 145.228 287.082 145.042 288.491 145.042H291.643C292.511 145.042 293.121 145.249 293.473 145.662C293.826 146.076 294.002 146.791 294.002 147.807V153.826C294.002 154.477 293.71 154.802 293.128 154.802ZM286.926 153.033H288.756C290.037 153.033 290.945 152.775 291.481 152.26C292.023 151.738 292.294 150.918 292.294 149.8L292.416 149.922H289.63C288.735 149.922 288.027 149.966 287.505 150.054C286.99 150.135 286.621 150.298 286.397 150.542C286.18 150.786 286.072 151.149 286.072 151.63C286.072 152.064 286.146 152.406 286.295 152.657C286.451 152.908 286.661 153.033 286.926 153.033Z" fill="black"/>
<path d="M298.186 154.802C297.616 154.802 297.332 154.477 297.332 153.826V145.896C297.332 145.232 297.603 144.9 298.145 144.9C298.741 144.9 299.04 145.232 299.04 145.896V148.722H305.912V145.896C305.912 145.232 306.197 144.9 306.766 144.9C307.336 144.9 307.62 145.232 307.62 145.896V153.826C307.62 154.477 307.336 154.802 306.766 154.802C306.197 154.802 305.912 154.477 305.912 153.826V150.43H299.04V153.826C299.04 154.477 298.755 154.802 298.186 154.802Z" fill="black"/>
<path d="M316.009 154.66C314.708 154.66 313.671 154.545 312.898 154.314C312.132 154.077 311.58 153.687 311.241 153.145C310.909 152.596 310.743 151.854 310.743 150.918V148.783C310.743 147.848 310.909 147.109 311.241 146.567C311.58 146.018 312.132 145.628 312.898 145.398C313.671 145.161 314.708 145.042 316.009 145.042H316.599C317.9 145.042 318.934 145.161 319.7 145.398C320.466 145.635 321.015 146.028 321.347 146.577C321.679 147.119 321.845 147.855 321.845 148.783V150.918C321.845 151.847 321.679 152.586 321.347 153.135C321.015 153.677 320.466 154.067 319.7 154.304C318.934 154.541 317.9 154.66 316.599 154.66H316.009ZM316.009 152.952H316.599C317.616 152.952 318.375 152.904 318.876 152.809C319.385 152.708 319.72 152.508 319.883 152.21C320.052 151.905 320.137 151.454 320.137 150.857V148.844C320.137 148.241 320.052 147.79 319.883 147.492C319.72 147.194 319.385 146.997 318.876 146.902C318.375 146.801 317.616 146.75 316.599 146.75H316.009C314.986 146.75 314.22 146.801 313.712 146.902C313.203 146.997 312.864 147.194 312.695 147.492C312.532 147.79 312.451 148.241 312.451 148.844V150.857C312.451 151.454 312.532 151.905 312.695 152.21C312.864 152.508 313.203 152.708 313.712 152.809C314.22 152.904 314.986 152.952 316.009 152.952Z" fill="black"/>
<path d="M339.01 154.66V145.042H345.862C347.001 145.042 347.892 145.289 348.536 145.784C349.18 146.272 349.502 146.953 349.502 147.828C349.502 148.268 349.424 148.651 349.268 148.976C349.112 149.302 348.882 149.566 348.577 149.769C349.194 150.271 349.502 150.966 349.502 151.854C349.502 152.437 349.356 152.938 349.065 153.358C348.773 153.779 348.357 154.101 347.814 154.324C347.272 154.548 346.621 154.66 345.862 154.66H339.01ZM340.718 152.952H345.72C347.103 152.952 347.794 152.626 347.794 151.976C347.794 151.454 347.642 151.088 347.337 150.878C347.038 150.661 346.527 150.552 345.801 150.552H340.718V152.952ZM340.718 148.844H345.801C346.628 148.844 347.17 148.773 347.428 148.631C347.686 148.482 347.814 148.18 347.814 147.726C347.814 147.075 347.116 146.75 345.72 146.75H340.718V148.844Z" fill="black"/>
<path d="M370.293 154.538C369.724 154.538 369.439 154.253 369.439 153.684V143.192L369.907 142.866L367.67 144.961C367.501 145.123 367.321 145.222 367.131 145.255C366.941 145.283 366.755 145.205 366.572 145.022C366.206 144.656 366.226 144.269 366.633 143.863L369.358 141.178C369.642 140.894 369.995 140.751 370.415 140.751C370.903 140.751 371.147 141.036 371.147 141.605V153.684C371.147 154.253 370.862 154.538 370.293 154.538Z" fill="black"/>
<path d="M381.653 140.751C383.009 140.751 384.008 141.073 384.652 141.717C385.296 142.361 385.618 143.354 385.618 144.696V150.776C385.618 152.043 385.31 152.989 384.693 153.613C384.076 154.229 383.131 154.538 381.856 154.538H379.335C378.23 154.538 377.369 154.304 376.753 153.836C376.143 153.362 375.77 152.647 375.634 151.691C375.593 151.393 375.648 151.169 375.797 151.02C375.946 150.871 376.163 150.796 376.448 150.796C376.963 150.796 377.261 151.074 377.342 151.63C377.424 152.084 377.617 152.399 377.922 152.576C378.227 152.745 378.698 152.83 379.335 152.83H381.856C382.663 152.83 383.205 152.687 383.483 152.403C383.768 152.111 383.91 151.569 383.91 150.776V149.088C383.381 149.725 382.629 150.044 381.653 150.044H379.538C378.196 150.044 377.2 149.719 376.549 149.068C375.898 148.417 375.573 147.421 375.573 146.079V144.717C375.573 143.361 375.898 142.361 376.549 141.717C377.2 141.073 378.196 140.751 379.538 140.751H381.653ZM381.653 142.46H379.538C378.664 142.46 378.067 142.619 377.749 142.937C377.437 143.256 377.281 143.849 377.281 144.717V146.079C377.281 146.953 377.44 147.55 377.759 147.868C378.084 148.18 378.677 148.336 379.538 148.336H381.653C382.527 148.336 383.12 148.177 383.432 147.858C383.751 147.54 383.91 146.953 383.91 146.099V144.696C383.91 143.829 383.751 143.239 383.432 142.927C383.12 142.615 382.527 142.46 381.653 142.46Z" fill="black"/>
<path d="M393.242 154.538C392.055 154.538 391.137 154.29 390.486 153.796C389.842 153.294 389.453 152.525 389.317 151.488C389.29 151.203 389.351 150.983 389.5 150.827C389.649 150.671 389.866 150.593 390.151 150.593C390.673 150.593 390.964 150.878 391.025 151.447C391.12 151.976 391.334 152.338 391.666 152.535C391.998 152.731 392.523 152.83 393.242 152.83H395.56C396.434 152.83 397.027 152.674 397.339 152.362C397.657 152.043 397.817 151.454 397.817 150.593C397.817 149.739 397.657 149.153 397.339 148.834C397.027 148.516 396.434 148.356 395.56 148.356H393.994C393.425 148.356 393.14 148.072 393.14 147.502C393.14 146.933 393.425 146.648 393.994 146.648H396.332C396.759 146.648 397.058 146.458 397.227 146.079C397.403 145.693 397.491 145.171 397.491 144.513C397.491 143.707 397.346 143.164 397.054 142.887C396.77 142.602 396.231 142.46 395.438 142.46H393.465C392.828 142.46 392.357 142.544 392.052 142.714C391.747 142.883 391.554 143.198 391.473 143.659C391.391 144.215 391.093 144.493 390.578 144.493C390.293 144.493 390.076 144.418 389.927 144.269C389.778 144.113 389.724 143.89 389.765 143.598C389.9 142.643 390.273 141.931 390.883 141.463C391.5 140.989 392.36 140.751 393.465 140.751H395.438C396.712 140.751 397.657 141.06 398.274 141.677C398.891 142.293 399.199 143.239 399.199 144.513C399.199 145.767 398.847 146.655 398.142 147.177C398.61 147.482 398.955 147.916 399.179 148.478C399.41 149.041 399.525 149.746 399.525 150.593C399.525 151.935 399.203 152.928 398.559 153.572C397.915 154.216 396.915 154.538 395.56 154.538H393.242Z" fill="black"/>
<path d="M409.799 140.751C411.155 140.751 412.155 141.073 412.799 141.717C413.442 142.361 413.764 143.354 413.764 144.696V150.776C413.764 152.043 413.456 152.989 412.839 153.613C412.222 154.229 411.277 154.538 410.003 154.538H407.481C406.376 154.538 405.516 154.304 404.899 153.836C404.289 153.362 403.916 152.647 403.781 151.691C403.74 151.393 403.794 151.169 403.943 151.02C404.092 150.871 404.309 150.796 404.594 150.796C405.109 150.796 405.407 151.074 405.489 151.63C405.57 152.084 405.763 152.399 406.068 152.576C406.373 152.745 406.844 152.83 407.481 152.83H410.003C410.809 152.83 411.351 152.687 411.629 152.403C411.914 152.111 412.056 151.569 412.056 150.776V149.088C411.528 149.725 410.775 150.044 409.799 150.044H407.685C406.343 150.044 405.346 149.719 404.696 149.068C404.045 148.417 403.72 147.421 403.72 146.079V144.717C403.72 143.361 404.045 142.361 404.696 141.717C405.346 141.073 406.343 140.751 407.685 140.751H409.799ZM409.799 142.46H407.685C406.81 142.46 406.214 142.619 405.895 142.937C405.583 143.256 405.428 143.849 405.428 144.717V146.079C405.428 146.953 405.587 147.55 405.905 147.868C406.231 148.18 406.824 148.336 407.685 148.336H409.799C410.674 148.336 411.267 148.177 411.579 147.858C411.897 147.54 412.056 146.953 412.056 146.099V144.696C412.056 143.829 411.897 143.239 411.579 142.927C411.267 142.615 410.674 142.46 409.799 142.46Z" fill="black"/>
<path d="M116.8 81.4922V51.8659L49.2852 119.381L123.232 193.328L175.937 140.63L116.8 81.4922Z" fill="#201A17"/>
<g filter="url(#filter0_f_1_337)">
<path d="M172.44 137.132L126.865 182.923C125.964 183.825 124.744 184.34 123.469 184.34H123.463C122.188 184.34 120.968 183.831 120.067 182.93L71.1642 134.027C70.2627 133.126 69.7544 131.906 69.7544 130.632C69.7544 129.357 70.2627 128.137 71.1642 127.236L116.854 81.5459" stroke="#414141" stroke-width="1.43251" stroke-miterlimit="10"/>
</g>
<path d="M198.711 103.92L123.463 28.6719V81.7294L104.979 100.213L74.5599 130.632L123.463 179.535L198.711 103.92Z" fill="#C82820"/>
<path fill-rule="evenodd" clip-rule="evenodd" d="M122.592 87.2628L80.2862 129.568L79.2227 130.632L80.2862 131.695L122.391 173.8L123.457 174.866L124.52 173.797L166.473 131.637L164.358 129.498L123.452 170.606L83.477 130.632L124.707 89.4018L122.592 87.2628Z" fill="url(#paint0_linear_1_337)"/>
<path d="M81.351 130.632L128.261 83.7216V40.2684L191.926 103.927L123.455 172.736L81.351 130.632Z" fill="url(#paint1_radial_1_337)"/>
<path d="M215.616 75.7655V126.245H222.652V82.0614H250.332V75.7655H215.616Z" fill="#201A17"/>
<path fill-rule="evenodd" clip-rule="evenodd" d="M214.87 126.991V75.0197H251.077V82.8067H223.398V126.991H214.87ZM222.652 82.0611H250.332V75.7653H215.616V126.245H222.652V82.0611Z" fill="black"/>
<path fill-rule="evenodd" clip-rule="evenodd" d="M250.331 120.979L254.212 124.86L268.526 103.492H286.013L299.12 124.86L303.145 120.979L277.302 77.1496L250.331 120.979ZM281.779 98.5331L276.996 89.3549L272.213 98.5331H281.779Z" fill="#201A17"/>
<path fill-rule="evenodd" clip-rule="evenodd" d="M254.326 126.028L249.388 121.089L277.316 75.7042L304.087 121.107L298.97 126.04L285.596 104.237H268.924L254.326 126.028ZM268.527 103.492H286.013L299.12 124.859L303.146 120.979L277.302 77.1489L250.331 120.979L254.212 124.859L268.527 103.492ZM276.996 89.3543L272.213 98.5324H281.779L276.996 89.3543ZM276.996 90.9675L273.442 97.7868H280.55L276.996 90.9675Z" fill="black"/>
<path d="M318.057 76.3452V125.666H324.594V92.415L335.769 103.59L328.137 111.222L332.903 115.988L345.301 103.59L318.057 76.3452Z" fill="#201A17"/>
<path fill-rule="evenodd" clip-rule="evenodd" d="M317.312 126.411V74.5448L346.356 103.589L332.903 117.042L327.083 111.222L334.715 103.589L325.34 94.2145V126.411H317.312ZM324.595 92.4146L335.77 103.589L328.137 111.222L332.903 115.988L345.302 103.589L318.057 76.3448V125.665H324.595V92.4146Z" fill="black"/>
<path fill-rule="evenodd" clip-rule="evenodd" d="M370.182 75.5068H399.498L414.141 101.439L399.47 126.518H370.211L354.618 101.44L370.182 75.5068ZM373.3 81.0137L361.071 101.39L373.271 121.011H396.311L407.79 101.391L396.283 81.0137H373.3Z" fill="#201A17"/>
<path fill-rule="evenodd" clip-rule="evenodd" d="M369.759 74.7619H399.932L415.001 101.446L399.897 127.264H369.796L353.744 101.448L369.759 74.7619ZM361.944 101.383L373.685 120.266H395.883L406.929 101.385L395.847 81.76H373.721L361.944 101.383ZM373.299 81.0144L361.071 101.39L373.271 121.012H396.311L407.789 101.391L396.283 81.0144H373.299ZM399.497 75.5075H370.182L354.618 101.441L370.21 126.519H399.469L414.141 101.44L399.497 75.5075Z" fill="black"/>
<defs>
<filter id="filter0_f_1_337" x="67.1042" y="79.1055" width="107.777" height="107.884" filterUnits="userSpaceOnUse" color-interpolation-filters="sRGB">
<feFlood flood-opacity="0" result="BackgroundImageFix"/>
<feBlend mode="normal" in="SourceGraphic" in2="BackgroundImageFix" result="shape"/>
<feGaussianBlur stdDeviation="0.966945" result="effect1_foregroundBlur_1_337"/>
</filter>
<linearGradient id="paint0_linear_1_337" x1="122.863" y1="172.439" x2="108.821" y2="91.494" gradientUnits="userSpaceOnUse">
<stop stop-color="#992A26"/>
<stop offset="1" stop-color="#FF626A"/>
</linearGradient>
<radialGradient id="paint1_radial_1_337" cx="0" cy="0" r="1" gradientUnits="userSpaceOnUse" gradientTransform="translate(129.84 154.707) rotate(-81.1472) scale(62.3198 51.2239)">
<stop stop-color="#DC635D"/>
<stop offset="1" stop-color="#C92921"/>
</radialGradient>
</defs>
</svg>
