<svg width="464" height="464" viewBox="0 0 464 464" fill="none" xmlns="http://www.w3.org/2000/svg">
<rect width="464" height="464" rx="232" fill="#06B085"/>
<path fill-rule="evenodd" clip-rule="evenodd" d="M124.867 189.946C120.615 189.946 117.161 186.497 117.161 182.24C117.161 177.983 120.615 174.534 124.867 174.534H192.496C196.244 174.534 198.343 172.723 199.089 170.135C199.572 168.466 202.275 164.146 207.74 164.146H313.931C313.931 164.146 314.34 164.098 314.54 164.292C314.718 164.487 314.76 164.77 314.76 164.77V179.463C314.76 179.463 314.666 179.889 314.44 180.02C314.083 180.225 313.736 180.172 313.736 180.172L284.896 180.125C281.405 180.125 278.376 182.807 278.376 186.293V283.964C278.376 283.964 278.376 288.972 274.276 291.707C274.276 291.707 243.945 311.25 242.129 312.484C240.628 313.518 237.152 314.935 234.071 312.694C231.882 311.103 231.62 307.366 231.62 307.366V187.841C231.62 181.973 228.108 180.146 223.845 180.146L209.677 180.141C205.378 180.104 203.834 181.757 203.099 184.345C202.616 186.014 200.385 189.915 194.637 189.915H190.448C187.65 189.915 185.404 192.193 185.404 194.981V291.528C185.404 291.528 185.556 299.565 181.151 306.022C177.608 311.219 169.477 315.928 169.477 315.928L135.697 338.384C135.697 338.384 121.985 347.876 106.573 342.18C94.9611 337.886 93.0713 330.154 94.3417 323.188C95.612 316.237 103.822 312.153 108.904 312.437C115.177 312.783 120.227 314.946 123.24 322.347C125.744 328.484 127.686 330.573 130.841 330.789C134.006 331.004 136.951 326.778 136.951 318.972V194.923C136.951 192.193 134.741 189.973 132.006 189.973L124.867 189.946ZM362.514 138.564H326.471C322.439 138.564 319.169 141.997 319.169 146.255C319.169 150.507 322.439 153.955 326.471 153.955L335.253 153.992L335.258 153.987L362.514 153.992C366.55 153.992 369.826 150.543 369.826 146.286C369.826 142.023 366.55 138.564 362.514 138.564ZM367.936 256.609V164.187H321.18V280.011C321.18 280.011 321.426 283.748 323.626 285.344C326.697 287.586 330.177 286.163 331.679 285.129C333.484 283.901 363.821 264.346 363.821 264.346C367.921 261.622 367.936 256.609 367.936 256.609Z" fill="white"/>
</svg>
