<svg width="464" height="464" viewBox="0 0 464 464" fill="none" xmlns="http://www.w3.org/2000/svg">
<rect width="464" height="464" fill="#F6F6F6"/>
<path d="M78.8941 388.677V395.273H59.3632V362.807H67.0727V388.677H78.8941Z" fill="black"/>
<path d="M81.8996 362.807H89.6092V395.273H81.8996V362.807Z" fill="black"/>
<path d="M114.873 378.783C116.7 379.382 118.128 380.31 119.156 381.567C120.184 382.823 120.698 384.365 120.698 386.193C120.698 389.248 119.713 391.532 117.742 393.045C115.772 394.53 112.489 395.273 107.891 395.273H94.3139V362.807H107.891C112.06 362.807 115.016 363.549 116.757 365.034C118.528 366.519 119.413 368.675 119.413 371.501C119.413 373.272 119.056 374.757 118.342 375.956C117.628 377.155 116.472 378.097 114.873 378.783ZM102.024 375.956H107.891C110.347 375.956 111.589 374.785 111.618 372.444C111.618 371.187 111.318 370.288 110.718 369.745C110.147 369.174 109.205 368.889 107.891 368.889H102.024V375.956ZM112.903 385.593C112.903 384.365 112.474 383.466 111.618 382.895C110.79 382.323 109.547 382.038 107.891 382.038H102.024V389.191H107.891C109.719 389.191 111.004 388.905 111.746 388.334C112.517 387.763 112.903 386.849 112.903 385.593Z" fill="black"/>
<path d="M135.436 383.537H131.838V395.273H124.128V362.807H137.277C145.53 362.807 149.656 366.276 149.656 373.215C149.656 378.155 147.5 381.324 143.188 382.723L150.941 395.273H142.374L135.436 383.537ZM131.838 377.027H137.277C140.333 377.027 141.86 375.756 141.86 373.215C141.86 371.873 141.489 370.888 140.747 370.259C140.004 369.631 138.848 369.317 137.277 369.317H131.838V377.027Z" fill="black"/>
<path d="M174.121 388.677H161.572L159.302 395.273H151.592L162.942 362.421H172.708L184.101 395.273H176.391L174.121 388.677ZM171.894 382.081L167.825 370.259L163.799 382.081H171.894Z" fill="black"/>
<path d="M210.413 369.403H201.547V395.273H193.838V369.403H184.972V362.807H210.413V369.403Z" fill="black"/>
<path d="M235.077 389.105V395.273H213.404V362.807H234.863V368.974H221.114V375.87H232.721V382.038H221.114V389.105H235.077Z" fill="black"/>
<path d="M278.547 375.442V393.003C276.806 393.973 274.935 394.716 272.937 395.23C270.966 395.744 269.11 396.001 267.369 396.001C263.685 396.001 260.558 395.301 257.989 393.902C255.419 392.474 253.491 390.49 252.206 387.949C250.921 385.407 250.279 382.452 250.279 379.083C250.279 375.885 250.893 373.015 252.121 370.474C253.377 367.932 255.276 365.919 257.817 364.434C260.387 362.95 263.571 362.207 267.369 362.207C269.253 362.207 270.838 362.393 272.123 362.764C273.436 363.107 274.907 363.635 276.534 364.349V371.159C275.078 370.359 273.636 369.76 272.208 369.36C270.809 368.932 269.196 368.717 267.369 368.717C265.455 368.717 263.785 369.16 262.357 370.045C260.958 370.902 259.887 372.115 259.145 373.686C258.431 375.228 258.074 376.984 258.074 378.954C258.074 382.152 258.888 384.708 260.516 386.621C262.143 388.534 264.428 389.491 267.369 389.491C268.682 389.491 269.896 389.291 271.009 388.891V382.038H262.914V375.442H278.547Z" fill="black"/>
<path d="M293.705 383.537H290.107V395.273H282.397V362.807H295.546C303.798 362.807 307.925 366.276 307.925 373.215C307.925 378.155 305.769 381.324 301.457 382.723L309.209 395.273H300.643L293.705 383.537ZM290.107 377.027H295.546C298.602 377.027 300.129 375.756 300.129 373.215C300.129 371.873 299.758 370.888 299.016 370.259C298.273 369.631 297.117 369.317 295.546 369.317H290.107V377.027Z" fill="black"/>
<path d="M326.779 396.001C323.181 396.001 320.126 395.273 317.613 393.816C315.101 392.332 313.216 390.319 311.96 387.777C310.703 385.207 310.075 382.309 310.075 379.083C310.075 375.913 310.703 373.058 311.96 370.516C313.216 367.975 315.101 365.962 317.613 364.477C320.126 362.964 323.181 362.207 326.779 362.207C330.32 362.207 333.347 362.964 335.859 364.477C338.372 365.962 340.257 367.989 341.513 370.559C342.798 373.101 343.44 375.942 343.44 379.083C343.44 382.309 342.798 385.207 341.513 387.777C340.257 390.319 338.372 392.332 335.859 393.816C333.375 395.273 330.348 396.001 326.779 396.001ZM326.779 389.491C329.549 389.491 331.705 388.52 333.247 386.578C334.789 384.636 335.56 382.095 335.56 378.954C335.56 376.984 335.217 375.228 334.532 373.686C333.846 372.144 332.833 370.93 331.491 370.045C330.177 369.16 328.607 368.717 326.779 368.717C323.952 368.717 321.768 369.674 320.226 371.587C318.713 373.5 317.956 375.999 317.956 379.083C317.956 382.224 318.713 384.751 320.226 386.664C321.739 388.548 323.924 389.491 326.779 389.491Z" fill="black"/>
<path d="M360.343 396.001C355.632 396.001 352.091 394.83 349.721 392.489C347.379 390.147 346.209 386.821 346.209 382.509V362.807H353.918V382.509C353.918 384.822 354.447 386.564 355.503 387.734C356.588 388.905 358.201 389.491 360.343 389.491C362.485 389.491 364.084 388.905 365.14 387.734C366.225 386.564 366.768 384.822 366.768 382.509V362.807H374.477V382.509C374.477 386.821 373.307 390.147 370.965 392.489C368.624 394.83 365.083 396.001 360.343 396.001Z" fill="black"/>
<path d="M392.351 362.807C396.463 362.807 399.547 363.721 401.603 365.548C403.687 367.347 404.729 370.045 404.729 373.643C404.729 377.155 403.687 379.825 401.603 381.652C399.547 383.48 396.463 384.394 392.351 384.394H386.912V395.273H379.202V362.807H392.351ZM392.351 377.883C393.893 377.883 395.035 377.541 395.778 376.855C396.52 376.17 396.905 375.099 396.934 373.643C396.934 372.13 396.563 371.03 395.82 370.345C395.078 369.66 393.922 369.317 392.351 369.317H386.912V377.883H392.351Z" fill="black"/>
<path d="M282.718 344.583H182.779C184.743 338.872 191.182 332.091 194.156 329.414C206.292 321.383 213.936 309.263 216.241 304.206C221.238 292.963 218.323 280.634 216.241 275.875C211.779 265.525 193.71 253.568 185.233 248.883C173.99 237.818 183.969 239.514 190.364 241.745L219.364 258.921C234.176 263.026 233.418 253.939 231.187 248.883L216.241 226.798C209.638 220.909 205.905 207.093 204.864 200.921C198.083 167.549 188.951 153.406 185.233 150.506L168.056 126.413C165.379 120.702 169.172 121.505 171.402 122.62L185.233 136.897C191.479 142.251 195.42 139.128 196.61 136.897L204.864 124.182C209.683 119.185 209.103 123.587 208.21 126.413L200.849 140.02C198.886 149.122 200.031 154.074 200.849 155.413C212.27 195.924 230.444 204.118 238.103 203.152C252.915 202.973 260.782 180.918 262.864 169.913V157.421C262.686 152.602 264.872 151.843 265.988 152.066C268.486 150.996 270.003 158.164 270.449 161.882V184.19C272.234 189.009 278.182 187.685 280.934 186.42L289.411 182.405C294.765 178.836 295.359 182.108 294.988 184.19C294.631 186.51 289.485 189.618 286.957 190.882C267.861 197.486 261.749 216.09 261.08 224.567C259.652 254.906 258.552 260.111 258.18 258.921C247.829 277.66 252.38 296.919 255.949 304.206C266.121 313.308 278.034 334.917 282.718 344.583Z" fill="black"/>
<path d="M214.457 147.382C218.026 144.11 226.324 139.53 230.964 147.382C228.808 150.579 222.487 155.056 214.457 147.382Z" fill="#9FB401"/>
<path d="M218.249 135.559C220.331 131.023 227.217 123.067 238.103 127.529C236.095 132.882 229.314 141.984 218.249 135.559Z" fill="#9FB401"/>
<path d="M221.372 120.836C221.744 116.226 225.432 107.407 237.21 109.013C236.318 114.367 231.901 124.227 221.372 120.836Z" fill="#9FB401"/>
<path d="M213.118 106.782C212.523 101.503 214.635 91.0328 227.841 91.3898C228.287 97.1898 225.968 108.388 213.118 106.782Z" fill="#9FB401"/>
<path d="M199.287 99.1973C197.577 94.1409 198.217 82.6895 214.457 77.3356C215.721 84.6229 214.456 99.1973 199.287 99.1973Z" fill="#9FB401"/>
<path d="M186.572 93.1742C182.928 88.4152 179.032 76.6664 192.595 67.7433C196.238 73.3946 200.135 86.3926 186.572 93.1742Z" fill="#9FB401"/>
<path d="M174.971 96.5204C168.502 95.7024 157.348 89.7388 164.487 72.4279C169.394 74.2869 178.362 81.708 174.971 96.5204Z" fill="#9FB401"/>
<path d="M160.025 103.882C153.63 103.361 141.866 98.1711 145.971 81.5741C152.812 82.6152 165.2 88.5342 160.025 103.882Z" fill="#9FB401"/>
<path d="M156.01 118.828C148.053 118.828 132.408 115.66 133.479 102.99C140.245 103.51 154.225 107.407 156.01 118.828Z" fill="#9FB401"/>
<path d="M158.91 130.428C153.63 133.849 141.643 138.058 135.933 127.529C140.617 124.48 151.771 120.791 158.91 130.428Z" fill="#9FB401"/>
<path d="M162.033 141.136C160.917 144.78 155.653 151.308 143.517 148.274C144.93 143.813 150.611 136.139 162.033 141.136Z" fill="#9FB401"/>
<path d="M175.864 152.736C176.31 156.751 173.767 164.425 160.025 162.998C160.62 159.131 164.621 151.665 175.864 152.736Z" fill="#9FB401"/>
<path d="M185.679 168.352C185.902 171.4 183.716 177.185 173.187 175.936C173.93 171.995 177.47 164.961 185.679 168.352Z" fill="#9FB401"/>
<path d="M197.948 235.498C197.651 230.665 199.287 221.489 208.21 223.452C208.359 227.69 206.515 236.033 197.948 235.498Z" fill="#9FB401"/>
<path d="M196.833 213.636C192.446 213.562 184.341 216.938 187.018 231.036C190.959 231.036 198.439 227.556 196.833 213.636Z" fill="#9FB401"/>
<path d="M180.994 229.921C176.682 228.062 168.234 220.507 168.948 205.159C173.856 206.126 183.136 212.432 180.994 229.921Z" fill="#9FB401"/>
<path d="M168.948 236.837C161.14 238.175 144.99 236.97 142.848 221.444C150.656 220.626 166.807 222.56 168.948 236.837Z" fill="#9FB401"/>
<path d="M170.287 244.198C163.148 243.157 148.514 244.287 147.087 257.137C153.407 258.773 166.896 258.475 170.287 244.198Z" fill="#9FB401"/>
<path d="M178.318 258.921C172.666 257.657 161.096 258.654 160.025 272.752C165.899 272.529 177.782 269.451 178.318 258.921Z" fill="#9FB401"/>
<path d="M190.81 266.283C186.125 266.58 177.068 270.655 178.318 284.575C182.853 283.683 191.702 278.775 190.81 266.283Z" fill="#9FB401"/>
<path d="M202.41 274.537C199.584 274.76 194.513 277.928 196.833 288.814C200.179 287.178 205.979 282.032 202.41 274.537Z" fill="#9FB401"/>
<path d="M278.257 216.536C282.421 216.685 290.615 219.392 290.08 229.029C286.139 228.88 278.257 226.173 278.257 216.536Z" fill="#9FB401"/>
<path d="M292.534 206.944C298.482 205.68 309.934 206.052 308.149 217.652C303.539 219.288 293.961 219.436 292.534 206.944Z" fill="#9FB401"/>
<path d="M301.234 195.344C303.093 199.434 309.934 206.542 322.426 202.259C319.08 196.682 310.157 187.492 301.234 195.344Z" fill="#9FB401"/>
<path d="M304.803 182.182C309.19 177.795 319.794 171.653 327.111 182.182C323.17 186.198 313.191 191.819 304.803 182.182Z" fill="#9FB401"/>
<path d="M304.803 169.913C309.636 163.444 321.489 153.138 330.234 163.667C326.664 168.203 316.581 175.802 304.803 169.913Z" fill="#9FB401"/>
<path d="M304.803 151.844C308 144.705 316.938 132.57 327.111 141.136C323.17 146.49 313.191 156.127 304.803 151.844Z" fill="#9FB401"/>
<path d="M296.549 139.128C296.921 132.213 301.412 118.874 316.403 120.836C315.139 126.934 309.398 139.128 296.549 139.128Z" fill="#9FB401"/>
<path d="M288.295 128.197C286.733 120.687 287.358 105.89 302.349 106.782C301.977 113.103 298.646 126.234 288.295 128.197Z" fill="#9FB401"/>
<path d="M273.572 103.659C269.333 109.384 264.024 122.308 276.695 128.197C279.818 122.695 283.566 110.084 273.572 103.659Z" fill="#9FB401"/>
<path d="M252.826 115.928C258.179 118.01 267.95 125.03 264.203 136.451C259.295 136.898 250.149 133.417 252.826 115.928Z" fill="#9FB401"/>
<path d="M242.787 141.805C247.546 140.987 256.93 142.564 256.395 155.413C251.859 155.934 242.787 153.941 242.787 141.805Z" fill="#9FB401"/>
<path fill-rule="evenodd" clip-rule="evenodd" d="M181.664 122.619C181.664 118.184 185.259 114.588 189.695 114.588C194.13 114.588 197.725 118.184 197.725 122.619C197.725 127.054 194.13 130.65 189.695 130.65C185.259 130.65 181.664 127.054 181.664 122.619ZM273.572 171.697C273.572 167.015 277.367 163.22 282.049 163.22C286.731 163.22 290.526 167.015 290.526 171.697C290.526 176.379 286.731 180.174 282.049 180.174C277.367 180.174 273.572 176.379 273.572 171.697ZM236.096 158.758C227.472 158.758 220.48 165.749 220.48 174.373C220.48 182.998 227.472 189.989 236.096 189.989C244.72 189.989 251.711 182.998 251.711 174.373C251.711 165.749 244.72 158.758 236.096 158.758Z" fill="#9FB401"/>
</svg>
